<?xml version="1.0" standalone="no"?><!DOCTYPE svg PUBLIC "-//W3C//DTD SVG 1.1//EN" "http://www.w3.org/Graphics/SVG/1.1/DTD/svg11.dtd"><svg t="1648545218306" class="icon" viewBox="0 0 1024 1024" version="1.1" xmlns="http://www.w3.org/2000/svg" p-id="3881" xmlns:xlink="http://www.w3.org/1999/xlink" width="200" height="200"><defs><style type="text/css">@font-face { font-family: feedback-iconfont; src: url("//at.alicdn.com/t/font_1031158_u69w8yhxdu.woff2?t=1630033759944") format("woff2"), url("//at.alicdn.com/t/font_1031158_u69w8yhxdu.woff?t=1630033759944") format("woff"), url("//at.alicdn.com/t/font_1031158_u69w8yhxdu.ttf?t=1630033759944") format("truetype"); }
</style></defs><path d="M768 128a85.333333 85.333333 0 0 0-74.666667 126.677333l1.024 1.578667 0.384 0.725333A85.333333 85.333333 0 1 0 768 128zM256 426.666667a85.333333 85.333333 0 1 0 73.216 129.152l0.426667-0.896 1.024-1.621334c6.784-12.202667 10.666667-26.325333 10.666666-41.301333a84.906667 84.906667 0 0 0-10.837333-41.642667l-0.853333-1.28-0.384-0.725333A85.034667 85.034667 0 0 0 256 426.666667z m512 298.666666c-29.653333 0-55.808 15.146667-71.082667 38.144l-2.133333 4.266667a34.986667 34.986667 0 0 1-2.773333 4.138667l-1.450667 2.816A85.333333 85.333333 0 1 0 768 725.333333z m0-682.666666a170.666667 170.666667 0 1 1-121.216 290.773333L420.266667 465.578667a171.434667 171.434667 0 0 1 0.042666 92.8l226.602667 132.053333a170.666667 170.666667 0 1 1-43.136 73.642667l-226.517333-131.968a170.666667 170.666667 0 1 1-0.042667-240.213334l226.474667-132.138666A170.666667 170.666667 0 0 1 768 42.666667z" p-id="3882"></path></svg>